<?xml version="1.0" encoding="iso-8859-1"?>
<!-- Generator: Adobe Illustrator 18.0.0, SVG Export Plug-In . SVG Version: 6.00 Build 0)  -->
<!DOCTYPE svg PUBLIC "-//W3C//DTD SVG 1.1//EN" "http://www.w3.org/Graphics/SVG/1.1/DTD/svg11.dtd">
<svg version="1.1" id="Capa_1" xmlns="http://www.w3.org/2000/svg" xmlns:xlink="http://www.w3.org/1999/xlink" x="0px" y="0px"
	 viewBox="0 0 493.505 493.505" style="enable-background:new 0 0 493.505 493.505; fill:#b90000" xml:space="preserve">
<path  id="XMLID_288_" d="M468.961,222.21h-9.458v-44.157c0-13.561-10.996-24.549-24.553-24.549c-7.733,0-14.538,3.644-19.051,9.229
	c-6.449-19.56-24.672-33.776-46.41-33.776c-27.097,0-49.089,21.983-49.089,49.096v44.157H173.114v-44.157
	c0-27.112-21.993-49.096-49.098-49.096c-21.737,0-39.953,14.216-46.409,33.776c-4.506-5.585-11.318-9.229-19.051-9.229
	c-13.549,0-24.545,10.987-24.545,24.549v44.157h-9.466C10.996,222.21,0,233.196,0,246.757c0,13.561,10.996,24.547,24.545,24.547
	h9.466v44.148c0,13.562,10.996,24.549,24.545,24.549c7.733,0,14.545-3.645,19.051-9.238c6.456,19.571,24.672,33.785,46.409,33.785
	c27.105,0,49.098-21.982,49.098-49.096v-44.148h147.285v44.148c0,27.114,21.993,49.096,49.089,49.096
	c21.738,0,39.961-14.214,46.41-33.785c4.513,5.593,11.318,9.238,19.051,9.238c13.558,0,24.553-10.987,24.553-24.549v-44.148h9.458
	c13.557,0,24.545-10.986,24.545-24.547C493.505,233.196,482.518,222.21,468.961,222.21z"/>
<g>
</g>
<g>
</g>
<g>
</g>
<g>
</g>
<g>
</g>
<g>
</g>
<g>
</g>
<g>
</g>
<g>
</g>
<g>
</g>
<g>
</g>
<g>
</g>
<g>
</g>
<g>
</g>
<g>
</g>
</svg>
